<svg version="1.1" id="Layer_1" xmlns="http://www.w3.org/2000/svg" xmlns:xlink="http://www.w3.org/1999/xlink" x="0px" y="0px"
	 width="100%" viewBox="0 0 600 600" enable-background="new 0 0 600 600" xml:space="preserve">
<path fill="#010100" opacity="1.000000" stroke="none" 
	d="
M335.000000,601.000000 
	C224.666672,601.000000 114.833313,600.979431 5.000101,601.095337 
	C1.576098,601.098938 0.903704,600.423584 0.905541,596.999939 
	C1.011461,399.666656 1.011461,202.333328 0.905541,5.000051 
	C0.903704,1.576437 1.576437,0.903705 5.000051,0.905542 
	C202.333328,1.011455 399.666656,1.011455 596.999939,0.905542 
	C600.423584,0.903705 601.096252,1.576437 601.094421,5.000051 
	C600.988525,202.333328 600.988525,399.666656 601.094421,596.999939 
	C601.096252,600.423584 600.424133,601.100586 596.999878,601.095825 
	C509.833374,600.974182 422.666656,601.000000 335.000000,601.000000 
z"/>
<path fill="#976433" opacity="1.000000" stroke="none" 
	d="
M561.570068,279.471313 
	C543.516724,268.583954 530.210449,253.217056 517.368286,237.411499 
	C511.673523,230.402618 505.549225,223.650894 501.923035,213.930740 
	C500.369873,218.217865 501.333252,220.975983 502.430206,223.676514 
	C510.812164,244.312515 521.898193,263.432312 535.064636,281.353607 
	C540.091797,288.196228 547.125671,292.733398 554.166809,297.234772 
	C561.782715,302.103638 569.251282,307.161438 572.708984,316.139587 
	C575.709839,323.931610 574.480713,326.874695 566.817627,330.110596 
	C556.518250,334.459778 543.500183,331.488281 536.929199,322.824036 
	C513.430115,291.839386 495.086761,257.942780 481.678406,221.514603 
	C477.646179,210.559708 474.322845,199.304276 469.782898,187.860107 
	C468.189484,190.926651 468.927307,193.563049 469.682190,196.170807 
	C471.900208,203.832397 474.613007,211.341583 476.349121,219.155319 
	C477.471375,224.206207 475.778870,228.942444 474.802673,233.596954 
	C473.721588,238.751587 468.330170,239.524109 464.870605,235.341019 
	C460.682037,230.276428 458.045074,224.249420 456.329468,217.990097 
	C449.654572,193.637222 440.133301,170.432098 427.974304,148.367996 
	C424.155060,141.437561 420.818848,133.526505 411.715607,131.142258 
	C399.512787,127.946175 387.538971,126.414276 375.959625,133.307983 
	C364.282867,140.259705 356.302673,150.568405 349.408325,161.944382 
	C332.294128,190.183548 322.050964,220.974945 314.957245,253.030533 
	C311.653564,267.959503 307.470337,282.693878 303.682129,297.515533 
	C302.771393,301.078796 299.877991,302.757263 297.015228,304.654266 
	C295.782990,303.682190 296.156464,302.491760 296.455597,301.475403 
	C301.954346,282.790131 304.167114,263.487793 306.830994,244.306656 
	C309.276611,226.697006 312.760620,209.372009 317.482574,192.242889 
	C321.193054,178.782913 324.281464,165.108307 330.120331,152.373962 
	C340.114319,130.577377 352.370026,110.768440 375.245361,99.729828 
	C390.887756,92.181526 406.127319,92.889816 422.070190,98.410973 
	C436.292755,103.336380 448.995361,110.825821 460.908600,119.657318 
	C482.827362,135.906006 507.585175,145.697571 533.631897,152.672333 
	C536.466125,153.431274 537.354370,154.973526 538.072693,157.243759 
	C540.732605,165.649963 544.954407,173.089508 551.514282,179.108994 
	C556.599792,183.775497 562.274536,186.059326 569.331970,184.516968 
	C574.805420,183.320801 581.531250,187.879898 582.737793,193.263107 
	C583.266907,195.623657 583.190186,197.830811 580.863770,199.492493 
	C573.674500,204.627518 566.068054,206.903839 557.377747,203.644257 
	C554.270874,202.478943 551.011841,201.724442 547.845032,200.711243 
	C546.583252,200.307541 545.279663,199.451950 544.216858,200.825577 
	C543.273438,202.044922 543.767517,203.482285 544.488159,204.579391 
	C549.529724,212.254684 555.992065,217.944092 565.570801,218.945557 
	C570.946411,219.507599 576.145569,218.385956 581.372986,217.218430 
	C589.030334,215.508148 593.754028,220.950912 591.302612,228.367844 
	C590.929016,229.498428 590.502563,230.339142 589.357483,231.040329 
	C582.253052,235.390488 574.830688,236.395523 566.942871,233.601151 
	C566.630554,233.490509 566.341675,233.223175 566.032532,233.207031 
	C551.602356,232.453506 541.440430,223.262802 530.576599,215.405701 
	C529.525879,214.645767 528.447449,212.601212 526.896362,213.748611 
	C525.124512,215.059311 526.514648,216.872269 527.244934,218.249390 
	C537.116272,236.863266 550.524902,251.423859 571.763123,257.033752 
	C579.871582,259.175568 586.471252,263.249023 589.331299,271.735260 
	C591.701294,278.767303 587.966919,284.313812 580.582153,285.065613 
	C573.570740,285.779419 567.584473,283.295410 561.570068,279.471313 
z"/>
<path fill="#71471B" opacity="1.000000" stroke="none" 
	d="
M444.366730,208.811432 
	C444.459503,209.752869 444.445648,210.467545 444.156647,211.044342 
	C439.473907,220.391129 438.280182,221.332565 431.404480,213.525177 
	C430.296661,212.267258 429.503387,210.728973 427.390289,211.379532 
	C425.096954,212.085571 425.054688,213.861618 425.089600,215.778519 
	C425.167572,220.055481 426.522186,224.220093 425.222565,228.644684 
	C424.054535,232.621307 421.876831,233.736969 418.213989,232.827072 
	C414.792572,231.977158 411.634674,230.532181 408.760406,228.440384 
	C407.582703,227.583282 406.297516,226.631088 404.692047,227.829071 
	C403.224579,228.924088 403.529388,230.240982 403.653931,231.820892 
	C403.940765,235.459274 404.221710,239.178726 403.772644,242.773788 
	C403.230408,247.114883 401.019409,248.018021 397.284515,245.659058 
	C393.626038,243.348373 391.891113,244.486542 390.872314,248.334686 
	C389.569061,253.257233 389.292419,258.410889 390.128906,263.192505 
	C391.029663,268.341431 388.341217,267.825378 385.259247,267.994659 
	C382.604584,268.140503 379.892120,264.418854 377.570312,267.371857 
	C375.683258,269.771912 378.697998,272.303528 378.939178,274.877136 
	C379.109344,276.692963 378.995636,278.539215 378.951935,280.370514 
	C378.781464,287.513123 378.478088,287.761261 371.708069,287.165741 
	C370.066742,287.021393 368.401917,287.144287 366.334930,287.144287 
	C366.629883,290.095001 367.367859,292.719696 368.839417,295.047882 
	C370.039856,296.947113 370.649017,298.987610 370.844360,301.133850 
	C371.073090,303.647308 371.022308,306.529022 368.916046,308.025696 
	C367.083374,309.327942 365.401459,306.805359 363.559052,306.296997 
	C361.657379,305.772339 359.955688,302.819763 357.866425,304.999481 
	C355.829254,307.124939 357.804443,309.274597 358.864380,311.328094 
	C360.607758,314.705536 362.682556,318.020874 363.710602,321.621368 
	C364.433044,324.151489 365.269531,328.045197 360.141937,327.889771 
	C359.122925,327.858887 358.067688,328.168274 358.099457,329.505737 
	C358.126099,330.627014 358.892273,331.421417 359.888672,331.673279 
	C362.810333,332.411865 365.624420,332.162262 367.563293,329.564301 
	C368.996735,327.643646 370.433838,327.864502 372.323578,328.711914 
	C383.572479,333.756287 393.687439,339.921936 400.231934,351.101471 
	C405.247253,359.668823 413.002106,366.005920 420.920898,371.860626 
	C442.108978,387.526031 459.053192,406.947479 472.564941,429.459595 
	C473.492981,431.005829 474.215546,432.765076 474.614471,434.520508 
	C475.449707,438.195801 477.529724,440.789215 479.938843,443.702209 
	C483.668823,448.212433 485.890869,453.969788 488.341614,459.592194 
	C483.809723,458.523773 480.759552,455.563812 478.940155,451.538727 
	C477.598236,448.569916 476.663147,447.003235 474.240692,450.574188 
	C472.636444,452.938995 470.829712,452.026886 469.134277,450.685150 
	C465.790710,448.039093 463.312988,444.746918 462.009583,440.650604 
	C459.377869,432.379913 455.492249,424.638916 451.923676,416.766144 
	C450.323151,413.235138 447.923798,410.241882 445.085754,407.617218 
	C444.280334,406.872375 443.474884,405.682495 442.126465,406.660431 
	C440.770447,407.643799 441.043854,408.922455 441.635132,410.236176 
	C445.189209,418.132782 446.323334,426.771362 449.168732,434.887054 
	C449.496918,435.823212 449.821228,436.812622 449.860779,437.788940 
	C450.014191,441.575134 449.736176,445.884766 445.841187,447.200378 
	C441.859589,448.545258 440.002258,444.392639 438.844940,441.522858 
	C433.688507,428.736511 429.143463,415.702515 423.934845,402.938629 
	C418.746918,390.225464 411.653870,378.960724 398.328644,373.046234 
	C395.525909,371.802216 393.605011,372.219452 391.853333,374.531708 
	C389.341736,377.847076 386.660065,381.047241 384.350037,384.496857 
	C382.834595,386.759949 381.880554,387.213287 380.036072,384.819183 
	C378.326691,382.600403 376.418488,380.402557 373.596710,379.447937 
	C372.316528,379.014801 370.824249,378.622375 370.137421,380.242767 
	C369.523926,381.690186 370.938660,382.203979 371.855530,382.857208 
	C376.250183,385.988098 380.031555,389.617920 382.137207,395.633789 
	C377.864380,394.546051 374.111542,393.626617 370.382874,392.617920 
	C369.363983,392.342285 368.319397,391.981812 367.751587,393.092773 
	C367.115601,394.337006 368.406982,394.809509 369.111176,395.348053 
	C372.947052,398.281555 375.755127,401.972015 378.438477,406.693268 
	C373.817200,406.328888 370.150757,403.639679 365.348297,406.239594 
	C371.747498,409.892883 374.765411,415.326050 377.019318,421.632446 
	C374.222870,420.907257 371.422180,419.855988 368.629517,418.783844 
	C367.556915,418.372040 366.432648,417.604065 365.387695,418.584930 
	C364.307617,419.598785 365.146759,420.725250 365.512970,421.795746 
	C366.139587,423.627258 367.546936,425.311523 366.661591,427.445984 
	C365.212250,427.957733 364.412384,426.899872 363.682465,426.120361 
	C359.585846,421.745331 355.268494,417.873260 348.852234,417.365784 
	C346.191559,417.155304 345.907166,415.666595 346.713806,413.176514 
	C350.136658,402.610748 346.005981,393.716370 340.158752,385.250214 
	C338.128967,382.311340 336.282196,382.448944 333.674835,384.771362 
	C324.672455,392.789948 314.136444,398.572418 303.803253,404.617279 
	C301.968018,405.690887 299.779388,406.160370 297.385132,406.931122 
	C295.751099,405.344513 296.806244,404.027588 297.780823,402.989532 
	C308.056549,392.044586 318.662018,381.474213 332.872589,375.594574 
	C341.683105,371.949188 346.570221,373.483948 352.178345,381.337616 
	C355.681335,386.243256 357.704346,391.906677 360.687775,398.491943 
	C360.248505,387.551239 361.201202,377.895905 362.309265,368.257874 
	C362.554260,366.127045 361.691498,365.139130 359.834900,364.659912 
	C357.265808,363.996765 355.148193,362.727722 354.513367,359.983643 
	C353.821259,356.992157 352.140900,357.316864 350.097137,358.403290 
	C341.254395,363.103912 331.955048,366.601532 322.303558,369.263977 
	C318.370300,370.349060 314.430908,370.600220 310.450989,370.272675 
	C306.222382,369.924652 303.497101,367.609711 302.811829,363.046570 
	C303.314728,362.380066 303.689880,362.265533 304.144043,362.467590 
	C303.731720,362.142822 303.353546,362.233032 302.660309,362.726624 
	C298.825928,363.856171 295.450378,363.823395 291.961792,361.510712 
	C290.289490,361.193268 288.996948,361.013489 287.585083,360.817108 
	C288.145020,358.103333 291.349976,357.141632 291.126312,354.284027 
	C290.851776,350.775909 287.488403,351.559784 285.596008,350.319855 
	C285.343018,348.592682 288.457764,348.424225 287.387787,346.685486 
	C286.458618,345.175568 284.598907,345.073578 282.914520,345.020844 
	C281.916656,344.989594 280.911407,345.056244 279.920837,344.960754 
	C277.828827,344.759186 275.046265,345.988220 273.824982,343.999390 
	C272.586823,341.983002 275.314636,340.757721 276.342224,339.195099 
	C278.140869,336.460022 276.322540,334.963623 274.105316,334.422760 
	C271.902069,333.885315 269.476868,334.336304 267.183746,334.062622 
	C265.524017,333.864532 263.008331,336.237244 262.475952,333.825714 
	C262.025543,331.785583 262.228271,328.879700 264.371307,326.992096 
	C268.002441,323.793793 271.750458,320.680237 276.079346,318.556610 
	C281.781464,315.759308 287.655151,313.325592 293.622620,311.079865 
	C299.900879,308.717224 306.107758,302.966400 307.792816,295.428284 
	C310.536041,283.156311 313.522827,270.967072 317.096588,258.518738 
	C320.007477,258.398865 320.136139,260.905396 320.870056,262.781189 
	C323.124756,268.543549 325.730133,274.091064 329.714447,278.898468 
	C333.004181,282.867828 337.173157,285.524628 342.082672,286.936615 
	C347.750885,288.566833 350.406433,287.105957 352.470306,281.514862 
	C352.932861,280.261871 353.301300,278.979187 353.497040,277.661285 
	C354.015717,274.169647 355.441864,272.691040 358.692535,275.292816 
	C361.414093,277.471161 362.928406,275.916290 364.088806,273.542908 
	C366.031281,269.569763 366.541718,265.286560 366.606110,260.926178 
	C366.630707,259.262878 366.502319,257.587463 366.749176,255.939819 
	C367.291626,252.319244 368.601318,251.714447 371.783905,253.533859 
	C376.908081,256.463226 378.489410,256.145630 381.871368,251.301666 
	C384.331787,247.777573 384.926056,243.629547 385.613434,239.518021 
	C386.487732,234.288925 387.630890,233.768829 391.981049,236.528458 
	C395.693024,238.883255 396.823059,238.534195 397.789154,234.286804 
	C399.007996,228.928040 400.570557,223.663254 401.890442,218.333664 
	C402.254486,216.863510 402.808533,215.179230 404.459656,214.962219 
	C406.137085,214.741776 407.006378,216.293518 407.755646,217.610886 
	C409.191010,220.134705 409.925690,223.598846 414.074463,222.561615 
	C418.154541,221.541580 419.075806,218.330750 419.749908,214.658691 
	C420.550812,210.295898 419.376984,206.027069 419.719879,201.724884 
	C419.835114,200.278885 419.762817,198.475021 421.561981,198.020370 
	C422.960266,197.667053 424.373230,198.636414 424.930817,199.755844 
	C428.486176,206.893478 434.778412,208.009613 441.785431,207.765396 
	C442.618408,207.736374 443.415161,208.064072 444.366730,208.811432 
z"/>
<path fill="#523412" opacity="1.000000" stroke="none" 
	d="
M444.903137,208.971527 
	C441.939392,209.067810 439.255707,209.236053 436.620209,208.954041 
	C431.971893,208.456650 427.327759,207.926056 425.467255,202.354752 
	C424.946686,200.795914 423.469330,199.371979 421.263123,198.706100 
	C420.291473,204.690414 422.379883,210.543457 421.081360,216.389725 
	C420.298431,219.914719 418.982391,222.710556 415.475983,223.908844 
	C411.730865,225.188690 408.692261,224.858994 407.475555,220.171127 
	C407.055786,218.553879 406.449280,216.649750 404.037781,215.354019 
	C402.323029,222.242554 400.509644,228.863251 399.108063,235.569992 
	C398.697021,237.536758 398.410278,239.081055 396.357758,239.750977 
	C394.300201,240.422546 392.922607,239.383087 391.494354,238.072418 
	C390.488892,237.149734 389.807129,235.076996 388.043793,235.894455 
	C386.445923,236.635223 387.219299,238.562622 386.982483,239.984955 
	C386.053986,245.562027 385.012360,250.926620 380.520782,255.199615 
	C377.431946,258.138153 375.093170,258.471710 372.093750,255.608719 
	C371.180878,254.737366 370.353058,253.037567 368.953247,253.609436 
	C367.226349,254.314926 368.045593,256.259521 368.045898,257.639496 
	C368.047272,263.467926 368.042542,269.284454 365.181244,274.603668 
	C362.320526,279.921844 361.776031,279.984009 357.417145,275.934204 
	C356.947144,275.497528 356.419220,275.123138 355.306366,274.227417 
	C355.026306,277.587646 354.599182,280.433197 353.452148,283.093964 
	C350.913971,288.981781 348.328339,290.259918 342.080383,288.512543 
	C333.901855,286.225250 328.137238,280.932343 324.335205,273.563873 
	C321.831696,268.711975 319.879028,263.575897 317.424591,258.354065 
	C323.000122,230.817978 330.119232,204.002350 343.277252,179.002823 
	C349.882507,166.453171 356.195251,153.930527 366.449463,143.902267 
	C379.047485,131.581894 402.683014,129.339218 417.327179,139.172745 
	C420.868439,141.550705 422.747467,145.497742 424.549377,149.177216 
	C432.512878,165.438797 440.954803,181.499985 446.416718,198.871277 
	C447.539520,202.442337 447.209900,205.711945 444.903137,208.971527 
z"/>
<path fill="#523412" opacity="1.000000" stroke="none" 
	d="
M77.943939,227.220245 
	C83.244072,216.384033 85.959595,204.739517 92.075089,194.571899 
	C93.418198,192.338837 94.125786,189.690948 94.905334,187.165939 
	C95.269234,185.987289 94.649643,184.833755 93.448875,184.282074 
	C92.062447,183.645111 91.262115,184.457275 90.711212,185.622314 
	C85.697517,196.225311 77.401169,203.668304 67.276749,209.771652 
	C63.153339,204.679123 58.137028,201.931259 51.570461,202.068527 
	C50.105755,202.099136 48.733643,201.332184 48.013985,199.498138 
	C51.784595,196.004883 56.432594,194.361420 60.688457,192.396011 
	C71.007729,187.630493 79.486305,179.574097 90.976501,176.791672 
	C100.189018,174.560806 107.567146,168.410156 113.908264,161.458115 
	C120.080177,154.691605 127.517853,149.867142 135.493591,145.643692 
	C138.957993,143.809174 142.315765,143.683090 146.058533,144.789688 
	C160.495575,149.058121 170.442520,159.111923 179.580368,170.298141 
	C194.551208,188.624847 203.394089,209.744812 207.673782,232.822281 
	C208.745850,238.603271 208.542847,244.621902 208.904205,250.532639 
	C208.990921,251.951126 208.675003,253.241089 207.125580,253.727020 
	C205.599304,254.205688 204.350754,253.399551 203.784424,252.191010 
	C202.952774,250.416321 202.621338,248.414963 201.930481,246.564789 
	C200.861832,243.702957 199.260132,242.791260 197.050095,245.595505 
	C194.706055,248.569733 191.221985,249.197845 187.887589,250.004715 
	C185.410339,250.604187 184.445969,248.934540 183.707581,246.794022 
	C182.689880,243.843796 183.318588,240.841141 182.982132,237.883896 
	C182.843506,236.665421 182.489975,235.505371 181.052368,235.368561 
	C179.842148,235.253372 179.292709,236.258621 178.987778,237.191574 
	C177.831528,240.729355 175.498199,243.584442 173.366455,246.933014 
	C170.828247,245.923401 169.470169,243.777679 168.003952,241.781952 
	C164.858170,237.500137 163.349945,232.169052 157.670670,229.608734 
	C154.053574,227.978058 154.011566,223.181702 153.218109,219.432648 
	C152.814377,217.525009 152.857788,215.542084 152.427628,213.148193 
	C149.145187,215.985519 146.711319,218.962662 143.794281,221.403702 
	C139.488647,225.006775 137.299362,224.781540 134.281113,219.956192 
	C132.731400,217.478638 131.868378,218.464127 130.708694,219.974564 
	C127.857353,223.688263 125.675056,227.819092 123.298943,231.832169 
	C122.029083,233.976883 120.636765,236.069534 118.340034,237.815887 
	C116.119591,237.751282 114.625084,238.213898 114.037979,240.667938 
	C108.268555,245.771317 104.862457,245.248245 101.634811,238.717194 
	C100.272133,235.959885 98.264740,235.489731 95.624741,235.400452 
	C88.747665,235.167877 82.623138,233.119705 77.943939,227.220245 
z"/>
<path fill="#835A31" opacity="1.000000" stroke="none" 
	d="
M85.255066,175.355591 
	C85.204231,171.641388 88.876266,171.565521 90.920898,169.893219 
	C101.770500,161.019455 110.947502,150.606720 119.871201,139.901794 
	C125.268204,133.427505 132.033264,129.212311 140.523376,127.798325 
	C142.751144,127.427307 144.837997,127.152184 146.828201,128.059799 
	C153.164429,130.949371 159.688721,133.428940 165.327667,137.740936 
	C175.503998,145.522583 185.969437,152.817703 198.220444,157.186737 
	C212.378983,162.236084 226.732391,165.815247 241.930191,165.199387 
	C249.046432,164.910995 256.199860,164.326050 263.196655,166.703812 
	C266.497589,167.825592 270.006744,167.174408 273.459167,166.860840 
	C275.541595,166.671722 278.092743,166.688309 279.146790,169.056122 
	C280.124329,171.252090 278.774689,173.175644 277.570953,175.006454 
	C276.044281,177.328415 272.014618,178.549118 272.451263,181.189194 
	C272.928192,184.073242 277.161652,183.556793 279.544464,184.988281 
	C282.174164,186.568100 282.481384,188.512466 280.891846,190.789139 
	C279.279205,193.098969 277.675537,195.568405 275.537292,197.320251 
	C272.669312,199.669983 273.492737,200.742599 276.188507,202.153122 
	C283.536774,205.997971 283.530975,206.070343 278.742737,212.959747 
	C276.322388,216.442169 274.544342,219.223679 280.420898,221.631897 
	C283.866150,223.043777 283.427795,227.262207 282.500519,230.584778 
	C282.016693,232.318558 281.027802,233.929932 280.145905,235.529831 
	C278.804993,237.962402 278.948029,239.400574 282.116364,240.095078 
	C287.395203,241.252197 288.174408,243.141937 285.546967,248.160141 
	C284.266479,250.605804 283.768097,252.735260 286.894684,253.709488 
	C291.463257,255.133041 290.907318,258.368164 289.347046,261.221954 
	C287.096283,265.338745 287.684570,267.923431 291.938263,269.968994 
	C296.905823,272.357880 299.146545,276.000366 297.179810,281.751587 
	C296.283234,284.373322 296.323822,287.315491 295.874512,290.530884 
	C292.592346,293.041473 289.843079,291.765167 289.165314,288.643341 
	C287.256531,279.851227 280.663116,273.699402 277.081604,265.885864 
	C276.161865,263.879333 275.218475,262.132172 275.526764,259.793701 
	C276.101227,255.435715 275.265259,251.498749 271.287476,248.814346 
	C268.876801,247.187500 269.377869,244.918213 269.848785,242.528839 
	C271.256958,235.384155 270.608307,234.492050 263.572662,233.152924 
	C262.263489,232.903717 260.955109,232.652069 259.665375,232.311691 
	C256.929230,231.589630 255.514404,230.283417 255.848175,226.994965 
	C256.372253,221.831146 255.164230,221.007523 250.127808,220.484543 
	C242.531174,219.695755 236.516357,222.548935 231.238647,227.698654 
	C229.746353,229.154755 229.520844,230.841385 229.521332,232.699966 
	C229.527512,255.854141 229.355713,279.009796 229.636734,302.161438 
	C229.700989,307.454224 230.414764,312.778046 231.052704,318.065796 
	C231.312485,320.219116 231.724182,322.368896 230.288666,324.709595 
	C227.596558,325.416840 227.412018,323.498444 226.831940,321.985168 
	C221.197311,307.285889 218.685349,292.032440 216.735123,276.400269 
	C214.169464,255.835098 215.506287,234.730743 208.963226,214.696426 
	C200.328430,188.257355 185.768585,165.801315 163.849045,148.381470 
	C162.810455,147.556076 161.619385,146.925583 160.530121,146.160461 
	C148.021515,137.374237 136.116302,140.141663 124.489456,148.046021 
	C118.676773,151.997696 113.487442,156.676636 108.700577,161.805176 
	C102.892075,168.028290 95.840553,172.289230 87.518265,175.225983 
	C86.655884,175.434494 86.146263,175.476929 85.255066,175.355591 
z"/>
<path fill="#CA9734" opacity="1.000000" stroke="none" 
	d="
M122.128098,398.123230 
	C134.958145,401.215088 147.017288,401.696350 158.651138,394.750031 
	C165.739792,390.517609 166.241562,391.203583 167.310822,399.191437 
	C168.623001,408.994171 163.743988,416.626740 157.576843,422.694794 
	C147.028564,433.073547 134.013855,440.422546 121.608994,448.441650 
	C118.162704,450.669495 114.608162,451.277039 110.745193,449.458893 
	C99.957321,444.381500 91.406815,436.634094 84.251175,427.256073 
	C83.297813,426.006622 81.846809,424.243469 82.762222,422.777405 
	C83.679810,421.307892 85.857765,421.985718 87.402771,422.245697 
	C94.602531,423.457245 101.818718,424.487244 108.946953,426.226044 
	C124.830124,430.100464 139.913818,428.389282 153.636780,418.683411 
	C157.182816,416.175415 158.588852,412.131104 161.388596,409.113953 
	C162.325104,408.104736 162.413498,406.577820 161.035370,405.595245 
	C159.597992,404.570374 158.262085,405.340790 157.662598,406.551422 
	C148.622452,424.807251 132.220963,423.659088 115.901604,422.271027 
	C104.811211,421.327698 94.094742,417.753754 82.870407,417.374207 
	C77.666573,417.198212 72.503532,417.232666 67.471741,418.347443 
	C51.772560,421.825684 44.506329,439.271912 52.810673,453.189972 
	C53.474766,454.302979 54.210728,455.373108 54.998257,456.595032 
	C42.235558,455.032043 30.186884,442.682251 27.004904,428.636078 
	C23.671801,413.922791 28.003357,401.302399 37.341225,390.208344 
	C41.533966,385.227081 45.297722,380.001068 51.356762,376.350739 
	C57.727093,372.512909 63.474480,373.921814 69.484276,374.947357 
	C75.562622,375.984589 81.333694,378.485901 86.533203,381.790466 
	C97.559494,388.798187 109.855698,392.938660 122.128098,398.123230 
z"/>
<path fill="#69481F" opacity="1.000000" stroke="none" 
	d="
M230.302460,325.191162 
	C226.652603,295.523529 228.939270,265.898865 227.671204,236.382401 
	C227.306351,227.889923 231.908798,224.567810 237.172089,221.072754 
	C242.448853,217.568710 248.887985,218.488586 254.685013,219.377258 
	C258.197144,219.915680 258.735168,224.375320 257.554413,227.244614 
	C256.241516,230.435211 257.807465,230.549408 259.877899,230.967789 
	C261.498413,231.295227 263.110687,231.676178 264.742371,231.933243 
	C272.014740,233.078903 273.836609,235.554108 271.607147,242.380722 
	C270.621521,245.398727 269.335205,247.489532 273.918182,248.386276 
	C276.095825,248.812378 278.365601,257.506134 277.226776,260.050140 
	C276.656982,261.323029 275.839050,262.260376 277.074493,263.563690 
	C282.130554,268.897644 283.470673,276.694611 289.066772,281.692200 
	C290.159851,282.668335 290.130157,284.127441 289.988708,285.445496 
	C289.581696,289.238586 291.142395,291.139252 295.417480,290.962769 
	C296.534180,296.496368 293.105225,301.093628 292.243744,306.286438 
	C292.143494,306.890533 291.183319,307.641541 290.493622,307.815216 
	C278.767700,310.767822 270.216461,318.980133 260.862427,325.792145 
	C256.157928,329.218201 251.209183,331.323181 245.438919,331.585724 
	C244.857651,329.412750 248.687988,327.688751 245.874115,325.708954 
	C243.673630,324.160706 241.356842,325.193085 239.271790,326.280396 
	C237.068161,327.429504 234.969498,328.779938 232.354279,329.969421 
	C231.728043,328.311249 232.319321,326.514435 230.302460,325.191162 
z"/>
<path fill="#67471F" opacity="1.000000" stroke="none" 
	d="
M77.575089,227.084076 
	C84.171165,231.724670 91.073227,234.941483 99.366631,234.025833 
	C100.945374,233.851532 101.576866,234.815735 102.217865,236.184067 
	C105.716469,243.652481 105.766869,243.628876 113.578827,241.059875 
	C112.628952,249.384003 108.931374,256.845001 104.803108,264.063110 
	C103.043304,267.140045 101.326454,270.200897 100.739594,273.640472 
	C98.203659,288.503387 89.895905,300.625244 82.308334,313.100677 
	C81.790054,313.952820 81.336555,314.918121 80.611412,315.556458 
	C78.619331,317.310059 76.393181,319.482605 73.655388,318.679535 
	C70.836510,317.852692 70.692986,315.153290 70.383034,312.264618 
	C69.475266,303.804565 71.675201,296.019531 74.868034,288.534454 
	C80.592506,275.114380 85.697762,261.462189 90.823883,247.817032 
	C91.793922,245.234909 93.913071,241.105270 90.541428,239.904129 
	C87.768951,238.916458 87.537666,243.600189 86.823265,245.785751 
	C80.069260,266.448334 71.716255,286.315247 59.006290,304.119110 
	C51.070835,315.234924 43.115448,326.327240 31.461697,334.044708 
	C28.539185,335.980103 25.569773,337.740845 22.393934,339.250885 
	C19.478689,340.637024 17.063728,339.665436 15.015178,338.051453 
	C12.693024,336.221863 12.769547,333.602295 13.623239,330.760498 
	C15.804305,323.500153 20.237976,317.725555 25.407768,312.496979 
	C36.636723,301.140350 44.117954,287.178711 52.544945,273.885162 
	C61.978611,259.003632 69.728035,243.200500 77.575089,227.084076 
z"/>
<path fill="#503312" opacity="1.000000" stroke="none" 
	d="
M468.180969,461.626160 
	C466.621216,460.088989 465.360199,458.305237 463.289581,459.194611 
	C461.021088,460.169006 462.309662,462.419220 462.111237,464.108154 
	C461.810547,466.667145 462.970551,470.209808 460.118896,471.295990 
	C457.272797,472.380035 456.459656,468.561554 454.670593,467.017120 
	C452.062042,464.765259 451.859467,461.034027 449.737366,458.437103 
	C448.780457,457.266113 447.862854,455.870941 446.117157,456.342712 
	C444.652832,456.738403 444.392639,458.240570 444.068451,459.522308 
	C443.580017,461.453735 443.279755,463.440674 442.679260,465.334167 
	C441.484070,469.102753 439.921844,469.446991 437.178986,466.543274 
	C433.347412,462.486969 432.156464,457.264069 431.050293,452.041351 
	C430.775482,450.743622 430.921448,449.323914 429.124146,449.008118 
	C427.385437,448.702637 426.270447,449.388214 425.513367,450.940552 
	C425.079315,451.830444 424.532623,452.688599 423.911438,453.460175 
	C420.365417,457.864990 417.238312,457.905273 413.952942,453.329834 
	C409.381073,446.962891 407.397064,439.526642 406.085602,431.969757 
	C403.289337,415.856384 399.323242,400.149445 390.891510,385.936066 
	C388.956787,382.674622 390.775085,380.569183 392.457733,378.345337 
	C394.417847,375.754822 396.662079,377.218811 398.694153,378.295593 
	C407.788269,383.114258 413.418030,391.055267 417.944305,399.942810 
	C424.608978,413.029205 429.570831,426.793640 434.052429,440.743042 
	C434.824005,443.144684 435.781525,445.357269 437.629913,447.195343 
	C439.886932,449.439819 441.944946,452.394196 445.621277,450.643402 
	C449.292084,448.895325 452.274384,446.528992 452.182587,441.606781 
	C452.075928,435.887512 451.315552,430.361664 449.495178,424.960266 
	C448.606384,422.323029 447.738861,419.678619 446.861694,417.037476 
	C447.286163,416.821686 447.710632,416.605896 448.135101,416.390106 
	C449.587494,419.302002 451.182739,422.152557 452.463806,425.137939 
	C455.543121,432.313812 458.432159,439.571136 461.480347,446.760651 
	C463.848938,452.347290 468.014435,454.437134 474.671906,454.357880 
	C477.915741,454.319275 479.075104,457.215790 479.767792,459.970093 
	C479.907623,460.525970 479.286652,461.233490 479.286102,461.871338 
	C479.283783,464.557922 480.701813,468.379852 477.803162,469.379242 
	C475.133209,470.299774 473.255737,466.660553 471.247375,464.741028 
	C470.284546,463.820740 469.372192,462.847565 468.180969,461.626160 
z"/>
<path fill="#C2D2D2" opacity="1.000000" stroke="none" 
	d="
M217.277985,385.577148 
	C215.549591,386.078705 214.127060,386.282532 212.556213,386.507629 
	C212.394958,384.096710 214.794922,382.500031 214.156769,380.361755 
	C213.328552,377.586609 210.734772,379.514862 208.956909,378.750793 
	C209.146606,375.608978 214.001465,374.337189 212.514542,370.829834 
	C211.769363,369.072052 209.443542,369.290985 207.195587,369.749359 
	C208.291107,367.563385 209.836044,365.090790 211.298630,362.570435 
	C211.903656,361.527863 213.583969,360.617920 212.328964,359.176361 
	C211.389771,358.097595 209.976578,358.239258 208.588760,358.525574 
	C206.981033,358.857269 205.323547,358.947723 202.357895,359.301575 
	C206.116104,354.849701 207.724854,349.864655 213.534515,349.428467 
	C216.281876,349.222137 215.185425,347.479889 214.963409,346.228210 
	C214.413956,343.130249 213.398560,340.046387 215.520279,337.107819 
	C218.900558,342.791992 219.099854,342.714233 226.048233,332.708435 
	C227.067825,337.813141 229.539093,336.225739 232.088089,334.322357 
	C235.223038,331.981445 238.000931,329.023315 242.146454,328.370544 
	C242.242599,328.728027 242.442337,329.045929 242.376450,329.292999 
	C241.855362,331.246735 239.261703,333.040802 241.139175,335.138580 
	C243.083954,337.311554 245.095337,335.031830 246.982193,334.323761 
	C249.833313,333.253845 252.614838,332.297729 255.600143,333.929718 
	C256.295776,334.309998 257.130859,334.177948 256.769348,335.471619 
	C255.418854,340.303833 258.643311,339.178955 260.894684,338.254181 
	C265.077301,336.536011 269.315948,336.722321 273.534515,336.906311 
	C274.032074,338.030640 273.316956,338.594116 272.912994,339.294708 
	C271.874268,341.096100 267.945892,342.069672 269.906616,344.502838 
	C271.714447,346.746216 274.338196,349.907135 278.380493,347.453583 
	C279.300934,346.894897 280.522308,346.717834 281.606140,347.372864 
	C281.557129,349.600800 277.497223,349.452881 278.589020,351.778046 
	C279.566101,353.858826 282.151886,352.888184 284.091980,352.954315 
	C285.385101,352.998352 287.070892,352.520233 287.672241,353.986664 
	C288.367676,355.682587 286.567841,356.494110 285.705322,357.627777 
	C284.345673,359.414795 280.485168,360.117096 281.333374,362.297607 
	C282.186737,364.491241 285.743683,363.439362 288.132111,363.713501 
	C289.464508,363.866425 290.829895,363.912750 291.577972,365.397980 
	C288.994873,368.032959 284.583374,367.164886 281.794525,370.309021 
	C284.468506,373.010925 288.513580,371.086823 291.082672,373.600525 
	C289.537598,377.748688 284.345917,376.358490 281.802704,379.237610 
	C282.258057,379.729279 282.537140,380.321320 282.900543,380.378540 
	C287.140747,381.046661 289.473511,382.062988 285.118317,386.271637 
	C283.581390,387.756836 285.829163,390.282501 285.677704,392.503662 
	C282.491913,393.873962 279.598724,388.422791 276.623230,391.959686 
	C274.488586,394.497070 275.373444,397.981262 274.861786,400.992218 
	C271.715363,401.890747 272.050507,393.196106 267.255859,398.748047 
	C263.812531,400.732117 261.323792,398.321228 258.681458,397.394775 
	C257.194580,396.873383 257.988678,395.146545 258.957977,394.604248 
	C262.075500,392.860077 264.121643,390.143585 266.449707,387.584869 
	C267.482544,386.449799 267.131348,386.842133 266.364044,386.149963 
	C265.351379,385.236511 266.188263,384.431366 267.066132,383.813263 
	C267.229065,383.698547 267.919464,384.041718 267.504822,383.474213 
	C267.405273,383.338013 266.590912,383.532959 265.828125,383.153564 
	C264.003571,379.608490 266.241364,378.238068 268.912415,376.720215 
	C272.960510,374.902557 273.396729,373.063324 269.729706,370.736603 
	C267.557953,369.358582 267.210449,367.801819 269.599792,366.146912 
	C271.654236,364.723969 271.271210,363.506561 269.075165,362.674225 
	C266.946625,361.867493 266.124908,360.699554 267.575562,358.537720 
	C268.305817,357.449402 270.593292,356.776794 269.167786,354.973755 
	C267.982025,353.473907 266.210144,353.936493 264.380005,354.708954 
	C266.048248,354.214630 267.769440,353.776215 268.278900,355.587585 
	C269.059509,358.363037 265.985962,359.276917 264.953186,361.275391 
	C266.585144,362.496399 270.005249,361.769592 269.942108,364.402557 
	C269.875854,367.163422 266.868256,367.904938 264.604919,368.842743 
	C263.994354,369.095703 263.318268,369.156128 262.313660,369.290497 
	C261.635651,369.356232 261.304779,369.410217 260.974915,369.404602 
	C258.733948,369.366547 256.023804,371.170868 254.368927,369.078888 
	C252.605057,366.849121 255.802567,365.073700 256.230347,362.561768 
	C253.858337,362.589478 251.298492,362.955872 250.779907,359.784454 
	C250.696274,359.273010 250.121597,358.717529 249.747681,358.874573 
	C245.572861,360.627747 240.951096,357.954895 236.934189,360.051636 
	C234.282486,361.435730 232.218231,362.380402 230.327789,359.050995 
	C229.658081,357.871552 228.030563,356.393188 226.832260,356.983734 
	C225.269775,357.753754 224.458359,359.690125 224.578186,361.669525 
	C224.735764,364.272675 225.856720,366.891907 224.230835,369.759064 
	C224.048035,370.057617 223.995972,370.008636 224.027252,370.025146 
	C221.429306,371.474487 219.879868,370.559723 219.141693,367.920349 
	C219.927475,373.741791 219.261383,379.556763 217.277985,385.577148 
z"/>
<path fill="#523412" opacity="1.000000" stroke="none" 
	d="
M291.723907,361.681885 
	C295.420959,361.578674 299.259857,361.784332 303.546509,361.992798 
	C303.682251,365.332458 306.947479,368.740479 310.574646,369.025391 
	C319.851685,369.754150 328.188568,366.230042 336.545898,363.107178 
	C341.922852,361.098022 347.030365,358.359161 352.227997,355.883057 
	C354.280945,354.905121 355.362030,354.421143 355.257721,357.705780 
	C355.143921,361.288788 357.517395,363.181885 361.188873,363.704559 
	C362.327209,363.866638 365.097656,363.111450 364.388123,366.148834 
	C361.760864,377.395294 362.047729,388.845215 361.970947,400.271606 
	C361.969177,400.535706 361.696716,400.797943 361.241364,401.617493 
	C359.206665,398.933960 358.099274,396.115326 356.914276,393.294312 
	C354.725708,388.084167 352.289215,383.034241 348.362305,378.789368 
	C344.709534,374.840881 340.632721,374.215607 335.712189,375.904816 
	C325.743896,379.326843 317.662750,385.681854 310.069214,392.604675 
	C305.444122,396.821259 300.568695,400.924377 297.047974,406.613831 
	C288.224121,409.995270 279.275513,411.112000 270.141846,408.808105 
	C268.924072,408.500916 266.701172,408.805817 266.759338,406.737213 
	C266.809479,404.953735 267.365906,402.920319 268.899597,401.845093 
	C270.395203,400.796600 271.040436,402.851013 272.107361,403.435669 
	C273.563202,404.233398 274.983276,405.443726 276.717957,404.729706 
	C278.810883,403.868347 277.901154,401.844421 277.934845,400.313660 
	C278.079163,393.764069 278.032440,393.763000 283.884735,395.371277 
	C288.071442,396.521851 289.677582,395.201050 288.693604,390.969818 
	C288.081451,388.337616 287.714325,386.509613 290.493408,384.609253 
	C294.181000,382.087646 290.300171,381.087738 288.822693,379.600525 
	C290.187103,377.296417 293.892487,377.150848 294.450531,374.490601 
	C295.157043,371.122131 290.985291,371.661926 289.607513,369.781860 
	C295.654938,365.842590 295.654938,365.842590 291.723907,361.681885 
z"/>
<path fill="#67471F" opacity="1.000000" stroke="none" 
	d="
M118.173431,238.270721 
	C122.170609,231.236603 125.779137,224.171997 130.631378,217.898422 
	C132.322922,215.711395 133.751175,214.494278 135.085831,218.472885 
	C136.902573,223.888580 139.002640,224.304276 143.156586,220.268860 
	C146.460815,217.058899 149.447586,213.522171 153.534363,209.090500 
	C154.186539,214.420792 154.075729,218.156784 154.957031,221.774368 
	C156.072998,226.355316 157.522644,230.412872 163.032806,231.064133 
	C163.926086,231.169724 164.696472,231.510117 164.847260,232.452423 
	C165.762054,238.168747 170.254807,241.789093 173.047546,246.801514 
	C172.758316,247.724167 172.491608,248.372925 172.034500,248.832123 
	C170.039841,250.835892 167.712036,253.510254 164.976608,252.703064 
	C161.984177,251.820053 162.310410,248.156540 161.941101,245.394699 
	C161.633759,243.096298 161.292099,240.800217 160.877701,238.519104 
	C160.563812,236.791092 159.517334,235.772903 157.700577,236.308655 
	C156.110458,236.777588 155.766815,238.118591 156.369705,239.522476 
	C159.110931,245.905777 154.598846,251.036972 153.265121,256.668915 
	C152.787323,258.686462 149.901443,259.014832 147.639175,259.079163 
	C145.243988,259.147247 144.526245,257.434357 143.915939,255.707428 
	C142.138290,250.677338 143.059341,245.522903 143.391739,240.405899 
	C143.466522,239.254715 143.851639,238.118408 143.876938,236.970474 
	C143.916122,235.192108 144.377609,232.951767 142.063110,232.319122 
	C139.197327,231.535812 140.316010,234.431915 139.534332,235.576721 
	C137.705536,238.255081 137.436874,241.378036 136.844162,244.507416 
	C134.846161,255.056885 131.439316,265.194153 126.779762,274.899139 
	C126.075127,276.366760 125.492317,278.037140 125.422523,279.638550 
	C125.201965,284.699371 121.386307,285.416412 117.792641,285.748444 
	C114.373047,286.064453 113.842690,282.819458 112.921150,280.364624 
	C111.652443,276.985016 111.643204,273.427338 112.225555,270.008698 
	C113.890160,260.236877 114.386513,250.195038 118.505417,240.951538 
	C118.877441,240.116669 118.777336,239.344986 118.173431,238.270721 
z"/>
<path fill="#FAC897" opacity="1.000000" stroke="none" 
	d="
M296.336578,470.293884 
	C297.532257,457.334351 301.691925,445.221069 304.454895,432.475006 
	C309.881409,432.491394 313.322052,436.179230 317.403320,438.544189 
	C318.518616,439.190460 319.277618,440.391052 320.842194,440.071228 
	C324.245544,439.375549 326.624908,440.889191 328.272247,443.739410 
	C329.298767,445.515564 330.694458,445.534241 332.515961,445.173248 
	C336.411865,444.401031 340.401855,444.318176 344.696350,443.887085 
	C348.505157,444.230072 351.718018,443.945587 354.041382,440.328796 
	C357.697510,437.756714 360.234528,434.257050 364.597839,432.916382 
	C367.698273,440.486450 364.745422,451.827820 358.598846,455.819153 
	C355.040497,458.129822 350.837311,457.241089 346.918640,456.596069 
	C342.334320,455.841492 337.816528,454.691376 333.248779,453.823944 
	C330.533783,453.308350 329.082245,454.231201 330.827728,456.990417 
	C332.646667,459.865814 331.684814,463.207581 332.752502,466.552124 
	C330.709198,469.693848 328.546875,472.082458 324.316467,470.250854 
	C322.537323,465.600159 323.857391,461.188782 323.945709,456.779724 
	C323.975281,455.303253 323.946320,453.816071 323.799225,452.348297 
	C323.649475,450.854370 322.809753,449.852936 321.194244,450.059204 
	C319.615814,450.260742 319.775330,451.561890 319.789154,452.717834 
	C319.842285,457.159027 319.883362,461.600403 319.864532,466.503510 
	C318.129242,469.618591 315.842926,470.816071 312.792053,469.591431 
	C309.763031,468.375519 310.552338,465.681488 310.609436,462.854736 
	C311.151337,457.491364 311.677917,452.579803 312.267639,447.675842 
	C312.416382,446.439117 313.446472,444.873077 311.658112,444.296448 
	C309.847076,443.712494 309.532776,445.618988 309.208466,446.725800 
	C307.529083,452.457458 307.532715,458.435303 306.854553,464.315033 
	C306.703247,465.626709 306.501740,466.932617 306.212769,468.635498 
	C303.346283,471.829163 300.175964,472.102234 296.336578,470.293884 
z"/>
<path fill="#DEA56F" opacity="1.000000" stroke="none" 
	d="
M237.657715,367.056702 
	C244.403976,369.226868 247.140167,372.943390 247.168549,379.400696 
	C247.181686,382.390717 246.931305,385.394989 249.365997,387.798218 
	C250.581253,388.997772 250.131378,390.643921 249.780594,392.062164 
	C246.034195,407.209198 237.054153,418.409515 223.786667,426.351929 
	C218.919418,429.265656 213.794815,431.667084 208.353790,433.211243 
	C206.057663,433.862885 202.871902,436.246490 201.565536,431.630432 
	C201.501190,431.403107 200.515289,431.142700 200.425797,431.258606 
	C196.577026,436.241394 192.163940,432.539551 188.448273,431.505707 
	C183.563980,430.146698 179.094864,427.303497 174.434998,425.124664 
	C173.165710,424.531219 171.879745,423.995239 172.979675,422.257111 
	C174.444351,419.942657 177.541016,419.935760 179.190277,417.541046 
	C181.395981,414.338379 183.470673,418.004669 185.837646,418.630615 
	C190.304672,425.538422 202.675049,428.215576 209.389221,423.913300 
	C211.080673,422.829437 213.010956,422.365509 215.110413,421.329163 
	C216.118744,420.823547 216.821014,420.541870 217.826294,419.999817 
	C229.034470,415.390045 233.621704,407.040436 231.731384,395.115784 
	C231.653992,394.627563 231.316101,394.047729 231.506958,393.666962 
	C235.059845,386.578857 232.421188,378.588135 234.793137,371.333099 
	C235.313644,369.741089 235.803268,368.172943 237.657715,367.056702 
z"/>
<path fill="#FAC897" opacity="1.000000" stroke="none" 
	d="
M237.742096,366.719757 
	C234.841370,372.721313 235.091873,379.053284 234.923325,385.363892 
	C234.859482,387.754669 236.346954,390.833954 232.821304,392.312347 
	C232.031250,392.643585 232.385300,393.409821 232.629166,394.040863 
	C235.884094,402.463348 231.928589,409.459747 227.995270,416.342682 
	C226.074280,419.704224 221.985733,419.522888 218.490662,420.938477 
	C217.510849,420.960876 216.890976,420.928650 216.228394,421.673706 
	C207.506317,430.012451 197.961700,427.674530 188.332703,424.602386 
	C185.786469,423.790009 185.976456,421.751251 186.016724,419.330994 
	C198.526306,424.134613 207.850876,418.494324 214.967865,409.126678 
	C219.487640,403.177612 224.211685,396.784332 224.188492,388.389313 
	C224.171494,382.240295 227.355515,376.663940 228.337372,370.568604 
	C228.889069,367.143677 233.410553,365.735657 237.742096,366.719757 
z"/>
<path fill="#9DAEAE" opacity="1.000000" stroke="none" 
	d="
M265.582520,382.699280 
	C266.796783,382.944702 267.786377,382.944702 268.940735,382.944702 
	C266.382019,385.498138 266.382019,385.498138 269.895630,386.476990 
	C265.122192,388.348419 265.016266,395.800629 258.412170,396.042450 
	C261.491089,396.639160 263.799042,397.981659 266.614685,398.995087 
	C266.808838,404.405518 261.000336,406.165771 259.482635,410.663696 
	C257.649841,409.397858 260.270691,406.118011 257.585083,405.726593 
	C255.049789,405.357086 253.670074,407.764984 252.262924,409.650085 
	C250.613342,411.859985 248.829865,413.969940 246.710587,415.956116 
	C246.811371,412.578613 246.181320,409.035248 248.014938,406.225464 
	C251.267258,401.241699 251.751144,395.310455 254.182175,390.060669 
	C255.246582,387.762115 256.261658,384.790527 252.050735,383.868103 
	C250.088715,383.438324 251.118561,381.673981 250.990463,380.518066 
	C250.440491,375.554840 248.391129,371.394775 245.070557,367.651337 
	C239.467407,361.334534 230.603622,362.007324 224.352325,369.909912 
	C224.009308,368.727814 224.311783,367.271057 223.872498,366.090271 
	C222.027359,361.130585 223.486572,357.209442 227.517395,353.612701 
	C227.125778,357.649628 234.123856,355.623322 232.238800,360.570679 
	C234.506287,360.574768 235.540543,359.030396 237.007248,358.358521 
	C238.541977,357.655518 239.477493,355.465149 241.736145,358.261536 
	C243.046646,359.884003 246.297272,357.751129 248.674423,357.282196 
	C250.625717,356.897308 252.704071,356.176056 252.156525,359.799500 
	C251.747192,362.508240 253.747986,361.327332 255.145782,361.144867 
	C256.320709,360.991516 257.710236,359.313049 258.668396,361.004333 
	C259.457214,362.396698 257.928955,363.348907 257.160004,364.391022 
	C256.196198,365.697174 255.015625,366.898895 254.750366,368.665527 
	C257.180267,369.586761 259.273743,367.359161 262.017609,368.195862 
	C262.663300,368.718719 262.798279,369.164551 262.803131,369.991943 
	C261.122833,373.721527 260.624817,377.114899 262.940735,380.687012 
	C264.045288,381.247101 264.788971,381.736542 265.582520,382.699280 
z"/>
<path fill="#F6C595" opacity="1.000000" stroke="none" 
	d="
M287.981140,447.204742 
	C288.935699,442.128632 289.714600,437.034210 294.417664,434.012695 
	C295.085632,433.583527 295.490204,433.060181 295.113617,432.471069 
	C294.819305,432.010712 294.016541,431.523041 293.525757,431.599518 
	C290.908051,432.007538 288.968414,433.366852 287.845123,435.890320 
	C285.811340,440.459167 284.132751,445.123138 283.294067,450.482422 
	C281.205139,452.838104 279.057983,452.551910 276.512878,451.246094 
	C277.575500,445.723877 279.075867,440.513123 280.292419,435.236938 
	C280.982727,432.243042 284.339966,432.749084 285.864990,430.723419 
	C280.976349,429.582306 277.101349,431.989899 276.029846,436.342896 
	C275.206085,439.689423 274.036438,442.950775 272.891602,446.598419 
	C269.971252,449.184509 266.884918,449.773346 263.159363,448.294678 
	C262.706726,438.779236 269.703705,433.247620 274.238922,426.564697 
	C276.853943,422.711273 281.064392,420.319305 285.809265,418.794830 
	C290.188232,417.387939 293.578094,418.053406 296.758057,421.058685 
	C297.846100,422.086975 298.769287,423.328552 299.969849,424.191650 
	C303.512238,426.738342 304.786072,429.239838 300.894989,432.720337 
	C299.810089,433.690735 299.680878,435.729614 298.992493,437.619324 
	C296.891785,440.478668 295.850555,443.714081 293.028839,445.590332 
	C291.576660,446.555847 290.306671,447.976379 287.981140,447.204742 
z"/>
<path fill="#DAA36F" opacity="1.000000" stroke="none" 
	d="
M150.136108,361.741913 
	C152.954498,364.392670 155.351944,366.860382 157.877014,369.631958 
	C158.233490,370.201111 158.468872,370.460419 158.938644,370.845276 
	C159.165466,370.977722 159.042358,370.935181 159.071472,370.876953 
	C162.054199,374.444946 162.412460,379.595551 166.424911,382.924683 
	C166.922241,383.179932 167.118683,383.287109 167.856171,383.786102 
	C169.370544,385.056793 170.216461,386.079132 171.609589,386.988708 
	C172.050354,387.337006 172.220062,387.487213 172.618301,387.892639 
	C173.538223,389.080322 174.192184,390.041382 175.206635,391.189270 
	C181.396484,397.755676 181.922821,401.074860 177.105072,408.422455 
	C175.550079,410.793945 175.982513,413.571320 174.258438,416.099579 
	C172.237350,419.403625 168.744202,420.221649 166.264801,422.416016 
	C164.553772,423.930298 163.978256,422.270172 164.289078,420.726807 
	C164.683136,418.770233 165.531830,417.020172 166.774719,415.366394 
	C171.380951,409.237274 171.772095,402.067474 170.841980,394.913910 
	C170.103790,389.236328 166.250885,387.298981 160.624237,388.981506 
	C159.212219,389.403748 157.847488,389.984192 156.024857,390.651642 
	C156.506973,379.299347 152.787933,369.949127 144.082214,362.437195 
	C145.509979,358.397522 147.672333,360.574890 150.136108,361.741913 
z"/>
<path fill="#66461F" opacity="1.000000" stroke="none" 
	d="
M322.295319,414.595764 
	C320.068481,413.353485 316.235962,415.484863 316.222504,412.059662 
	C316.207123,408.144562 313.640259,403.407532 318.891083,400.393829 
	C322.041840,398.585541 324.806610,396.104095 327.741608,393.920776 
	C329.545990,392.578461 331.497681,391.079712 333.127563,393.913055 
	C334.886658,396.971008 339.698486,400.045898 335.833374,403.722992 
	C332.584930,406.813354 332.760529,409.052887 334.558655,412.285736 
	C335.113678,413.283630 335.380402,414.467316 335.641602,415.597717 
	C336.143799,417.771149 335.301971,418.489929 333.276642,417.493347 
	C329.934143,415.848633 326.234314,415.620697 322.295319,414.595764 
z"/>
<path fill="#F6F6F6" opacity="1.000000" stroke="none" 
	d="
M138.796204,364.119995 
	C148.703262,370.036530 153.580841,380.926788 151.035736,390.804504 
	C150.349060,393.469574 149.229462,396.364807 145.981232,395.899841 
	C142.740326,395.435974 139.982071,393.223816 138.118958,390.521912 
	C136.959320,388.840118 139.109848,388.853851 140.013367,388.662964 
	C145.084824,387.591400 144.667969,383.870239 143.465652,380.543915 
	C142.280960,377.266296 139.879440,374.594330 135.857712,377.169434 
	C133.875854,378.438416 133.613693,377.103210 133.219360,375.878632 
	C131.860825,371.659637 134.379227,366.015076 138.796204,364.119995 
z"/>
<path fill="#67471F" opacity="1.000000" stroke="none" 
	d="
M47.691315,199.143158 
	C49.782345,201.036102 52.078506,200.959763 54.393940,201.021088 
	C60.214806,201.175186 64.924500,203.121216 66.931870,209.542343 
	C62.433571,212.295959 58.093197,215.084549 52.950737,216.171967 
	C46.515507,217.532791 41.942860,215.527710 40.400127,210.495102 
	C38.902504,205.609650 41.186176,201.878036 47.691315,199.143158 
z"/>
<path fill="#F7C696" opacity="1.000000" stroke="none" 
	d="
M174.445389,416.284485 
	C173.392776,412.814270 174.765259,409.808502 176.532196,406.689911 
	C180.382721,399.893768 180.093521,398.817169 174.821548,393.248108 
	C174.397202,392.799835 174.255005,392.084473 173.922791,391.121460 
	C173.364014,389.999420 173.046875,389.138824 172.248627,388.178558 
	C172.029663,387.920654 172.011459,387.988281 172.046112,387.983215 
	C170.975571,386.973816 169.923386,385.896484 168.245758,385.139099 
	C168.013626,384.917755 168.007996,384.987091 168.041641,384.978302 
	C167.806183,384.763489 167.545639,384.547119 167.104706,384.150635 
	C164.808838,384.125610 163.177826,384.025177 162.743866,381.181061 
	C162.225235,377.782196 159.261566,375.198151 159.051544,371.210510 
	C161.713684,372.863220 164.587143,374.161438 167.847778,375.079926 
	C180.626083,378.679443 187.630447,395.749634 181.315750,407.367554 
	C181.001755,407.945282 180.739594,408.859680 180.272385,408.995667 
	C177.231659,409.880554 176.495773,412.127289 176.306396,414.906403 
	C176.276688,415.342499 175.326324,415.715820 174.445389,416.284485 
z"/>
<path fill="#DEA56F" opacity="1.000000" stroke="none" 
	d="
M344.741119,443.638489 
	C342.520752,445.674377 339.598480,445.883545 336.626801,445.997681 
	C335.160522,446.053986 333.347290,445.840118 332.309631,446.596802 
	C329.544678,448.613037 328.445221,447.786591 327.366638,444.898834 
	C326.096008,441.497009 323.668396,439.860138 319.936920,441.658722 
	C319.406403,441.914429 318.815613,442.765778 318.277679,441.938019 
	C315.126099,437.088226 309.736847,435.580750 304.918335,432.595703 
	C311.437469,428.036682 317.963745,427.126251 324.679810,432.418152 
	C328.447723,435.387115 332.734131,437.688690 336.666687,440.461548 
	C339.045441,442.138824 341.552429,443.218628 344.741119,443.638489 
z"/>
<path fill="#F4C394" opacity="1.000000" stroke="none" 
	d="
M150.396973,361.593506 
	C148.453659,362.605377 146.525131,360.486664 144.169388,361.838745 
	C142.856628,361.755402 141.772903,361.373444 140.356323,360.894928 
	C132.664078,357.988129 126.858276,361.647339 121.083397,365.691345 
	C120.759247,367.857574 119.963310,368.911133 118.095474,367.527100 
	C116.117722,366.061584 114.769424,364.125244 115.386993,361.566284 
	C116.123489,358.514465 115.803360,354.725250 119.844093,353.539856 
	C121.738174,352.984253 123.906769,352.219727 124.103760,355.582275 
	C124.182457,356.925598 124.932442,358.057983 125.995743,358.921448 
	C129.767883,356.820892 131.664536,350.912659 136.725052,352.110748 
	C142.092194,353.381439 146.702377,356.771942 150.396973,361.593506 
z"/>
<path fill="#EEEEEE" opacity="1.000000" stroke="none" 
	d="
M132.338165,389.282257 
	C133.730209,391.566223 134.973770,393.490417 136.413834,395.718689 
	C133.751724,396.419952 131.181107,395.977570 128.900513,394.884583 
	C126.886131,393.919098 124.819305,392.783386 127.268654,389.709778 
	C129.949982,386.345093 129.500244,383.074097 125.299141,380.676270 
	C122.483955,379.069458 121.918373,369.145905 124.299881,367.042572 
	C125.388229,366.081360 126.628891,365.874115 127.995178,366.543518 
	C129.473083,367.267548 129.737640,368.615936 129.443085,369.923187 
	C127.932648,376.626862 130.787460,382.663300 132.338165,389.282257 
z"/>
<path fill="#DAA36F" opacity="1.000000" stroke="none" 
	d="
M287.445068,447.279510 
	C291.038208,446.130890 293.612823,444.290375 295.079773,441.109100 
	C295.741089,439.674988 296.680573,438.604919 298.526062,438.012268 
	C298.352875,444.961182 296.563904,451.644836 293.706207,458.034424 
	C293.264771,459.021393 293.061523,460.636841 291.722137,460.657257 
	C290.339081,460.678375 289.505310,459.342926 288.845673,458.217651 
	C286.905365,454.907715 286.813629,451.279114 287.445068,447.279510 
z"/>
<path fill="#D8A26E" opacity="1.000000" stroke="none" 
	d="
M323.943787,470.403687 
	C327.460388,471.156342 329.417664,468.238098 332.362000,466.990967 
	C333.518280,470.018097 329.725708,474.118652 335.015686,476.516785 
	C335.208954,479.878723 339.670319,480.033539 339.245056,483.521484 
	C330.592712,485.965790 325.501343,481.600525 323.943787,470.403687 
z"/>
<path fill="#F4C394" opacity="1.000000" stroke="none" 
	d="
M339.396301,483.792877 
	C338.835358,482.087646 337.696777,481.384216 336.173401,480.884583 
	C334.382599,480.297272 333.328888,479.204285 334.942505,477.010559 
	C336.733215,476.183594 338.178009,475.346497 339.731720,475.004944 
	C342.870972,474.314850 345.274445,473.257294 345.565308,469.441589 
	C345.682251,467.907227 346.789917,465.825226 348.606812,466.010010 
	C350.990448,466.252411 350.081665,468.614288 349.995148,470.048615 
	C349.586914,476.814941 346.168610,481.451599 339.396301,483.792877 
z"/>
<path fill="#D7A06C" opacity="1.000000" stroke="none" 
	d="
M321.899963,420.990601 
	C325.114105,417.937805 332.358917,420.039276 333.791138,424.340027 
	C334.698944,427.066193 337.038422,430.767059 335.080841,432.682251 
	C333.255615,434.467987 330.511444,430.951080 328.140991,429.886566 
	C324.589233,428.291656 321.383850,426.138428 321.899963,420.990601 
z"/>
<path fill="#DBA673" opacity="1.000000" stroke="none" 
	d="
M310.398865,462.779755 
	C311.575409,469.540771 313.359344,470.528198 319.446472,467.032715 
	C320.124969,471.218872 320.422333,475.476746 321.954712,479.536438 
	C313.096130,481.109467 309.691132,478.224213 310.000977,469.585999 
	C310.077789,467.444214 310.131805,465.301636 310.398865,462.779755 
z"/>
<path fill="#4C3013" opacity="1.000000" stroke="none" 
	d="
M340.234894,404.193451 
	C341.837402,399.233643 338.234528,396.627594 336.265533,393.295197 
	C335.572693,392.122559 332.951141,390.878265 335.048798,389.274048 
	C336.526886,388.143738 338.179779,389.545563 339.268036,390.928436 
	C343.032379,395.711670 346.695068,412.624603 341.399292,418.305969 
	C337.532867,413.381989 337.037781,408.510529 340.234894,404.193451 
z"/>
<path fill="#D29D6B" opacity="1.000000" stroke="none" 
	d="
M262.634216,448.266998 
	C265.978424,448.607697 268.855560,446.852905 272.352142,446.953644 
	C272.441467,448.905518 272.215698,450.886200 271.770721,452.816345 
	C271.377258,454.523132 272.853973,457.459320 269.707642,457.515686 
	C267.151581,457.561462 264.279907,457.097595 263.237732,453.917664 
	C262.666443,452.174652 262.078613,450.433472 262.634216,448.266998 
z"/>
<path fill="#9DAEAE" opacity="1.000000" stroke="none" 
	d="
M217.296539,386.031250 
	C216.627274,379.915833 218.664124,374.118500 217.880646,368.074005 
	C220.318542,367.622040 221.156219,370.624573 223.687424,370.045898 
	C223.909988,375.378998 221.201248,380.121368 220.505203,385.331390 
	C220.179962,387.765686 218.743774,386.446136 217.296539,386.031250 
z"/>
<path fill="#D7A06C" opacity="1.000000" stroke="none" 
	d="
M276.054688,451.310730 
	C278.250305,450.957520 280.306641,450.953033 282.735657,450.901978 
	C283.273102,454.615692 283.488220,458.364014 285.907318,461.619568 
	C278.767853,462.287628 275.024139,458.461029 276.054688,451.310730 
z"/>
<path fill="#DBA673" opacity="1.000000" stroke="none" 
	d="
M121.430130,365.877106 
	C119.779770,365.820160 118.602135,365.338135 119.880882,363.867279 
	C122.483055,360.874115 135.327927,357.742767 138.771179,359.166138 
	C139.187256,359.338135 139.485489,359.795135 139.930908,360.459229 
	C137.250717,360.517670 134.787567,361.944092 132.731720,363.189880 
	C129.211014,365.323273 124.773949,362.355438 121.430130,365.877106 
z"/>
<path fill="#DAA36F" opacity="1.000000" stroke="none" 
	d="
M295.950653,470.382843 
	C299.086517,469.908813 302.267456,470.401917 305.689514,469.073975 
	C306.221283,470.332184 306.340454,471.634552 306.436859,473.331055 
	C306.409790,473.922729 306.405518,474.120300 306.517273,474.590637 
	C307.494629,477.280975 305.870880,477.308289 304.321289,477.121155 
	C300.314148,476.637299 297.095306,475.024445 295.950653,470.382843 
z"/>
<path fill="#D8A26E" opacity="1.000000" stroke="none" 
	d="
M364.847290,432.695190 
	C361.511230,435.223785 359.043701,438.762848 354.646484,440.073212 
	C355.375061,438.211243 356.637207,436.427124 357.474152,434.461914 
	C358.309540,432.500397 358.719025,430.357483 359.329163,428.245789 
	C361.893127,428.682007 363.196503,430.702423 364.847290,432.695190 
z"/>
<path fill="#171919" opacity="1.000000" stroke="none" 
	d="
M254.914505,162.405533 
	C250.956619,162.683716 246.520752,162.683716 242.084869,162.683716 
	C242.084305,162.498260 242.083755,162.312805 242.083206,162.127350 
	C246.200974,162.127350 250.318741,162.127350 254.914505,162.405533 
z"/>
<path fill="#3C3C3C" opacity="1.000000" stroke="none" 
	d="
M272.985657,413.714478 
	C276.038696,412.306488 279.405426,413.435669 282.783386,413.970093 
	C279.619629,413.970093 276.455872,413.970093 272.985657,413.714478 
z"/>
<path fill="#4F4F50" opacity="1.000000" stroke="none" 
	d="
M108.628952,264.844421 
	C108.635216,263.039764 109.510811,262.407410 109.921196,264.019928 
	C110.434090,266.035309 110.044456,268.280365 109.434334,270.471649 
	C109.194405,268.720337 108.954475,266.968994 108.628952,264.844421 
z"/>
<path fill="#4F4F50" opacity="1.000000" stroke="none" 
	d="
M21.062937,418.957306 
	C21.084614,416.882965 21.084614,415.244385 21.084614,413.605835 
	C21.315340,413.609161 21.546068,413.612518 21.776794,413.615875 
	C21.776794,416.850189 21.776794,420.084503 21.776794,423.616180 
	C20.335516,422.178589 21.222908,420.705658 21.062937,418.957306 
z"/>
<path fill="#3C3C3C" opacity="1.000000" stroke="none" 
	d="
M400.966675,89.073837 
	C402.633759,89.258278 403.975464,88.642548 405.551056,89.763077 
	C402.458099,89.763077 399.752991,89.763077 397.047882,89.763077 
	C397.018066,89.528290 396.988281,89.293510 396.958466,89.058723 
	C398.157501,89.058723 399.356506,89.058723 400.966675,89.073837 
z"/>
<path fill="#BEBDBD" opacity="1.000000" stroke="none" 
	d="
M479.593536,230.671173 
	C478.775513,229.117920 478.305847,227.474747 477.836182,225.831573 
	C479.474121,227.076340 481.627563,228.094025 479.593536,230.671173 
z"/>
<path fill="#9F9F9E" opacity="1.000000" stroke="none" 
	d="
M300.015076,258.938171 
	C300.218536,257.479218 299.423401,256.278656 300.803101,255.180618 
	C300.803101,258.129639 300.803101,260.864990 300.803101,263.600372 
	C300.603546,263.618591 300.404022,263.636841 300.204468,263.655090 
	C300.132050,262.222473 300.059631,260.789886 300.015076,258.938171 
z"/>
<path fill="#BEBDBD" opacity="1.000000" stroke="none" 
	d="
M540.742798,228.316742 
	C540.156372,229.321518 539.477173,230.607147 538.410095,228.875046 
	C537.969238,228.159485 537.429993,227.137115 538.235596,226.733734 
	C539.228577,226.236557 539.777405,227.602539 540.742798,228.316742 
z"/>
<path fill="#6C6C6C" opacity="1.000000" stroke="none" 
	d="
M576.295593,239.072571 
	C574.409546,240.790863 571.987000,239.784348 569.596008,239.047424 
	C571.698608,239.047424 573.801147,239.047424 576.295593,239.072571 
z"/>
<path fill="#BEBDBD" opacity="1.000000" stroke="none" 
	d="
M374.739777,297.857269 
	C374.941010,300.613190 374.941010,303.015961 374.941010,305.418732 
	C374.154694,302.785675 373.575562,300.158356 374.739777,297.857269 
z"/>
<path fill="#9F9F9E" opacity="1.000000" stroke="none" 
	d="
M191.112869,442.856873 
	C191.378418,440.827911 190.387863,439.050842 192.084976,436.400909 
	C192.084976,439.430634 192.089645,441.448517 192.067978,443.466095 
	C192.067093,443.547119 191.765778,443.724579 191.692123,443.686676 
	C191.457733,443.566040 191.264816,443.364838 191.112869,442.856873 
z"/>
<path fill="#3C3C3C" opacity="1.000000" stroke="none" 
	d="
M258.123138,448.652954 
	C258.165131,447.959320 258.188965,447.631897 258.267303,447.318085 
	C258.378693,446.871887 258.735779,446.904205 258.750854,447.416321 
	C258.817505,449.681458 258.779694,451.949677 258.779694,454.764832 
	C257.481476,452.558075 258.424377,450.741699 258.123138,448.652954 
z"/>
<path fill="#4F4F50" opacity="1.000000" stroke="none" 
	d="
M570.936279,289.252197 
	C573.192261,289.045685 575.124817,289.045685 577.057373,289.045685 
	C574.905334,289.655853 572.776306,290.610321 570.936279,289.252197 
z"/>
<path fill="#C2D2D2" opacity="1.000000" stroke="none" 
	d="
M21.645809,344.019379 
	C22.322535,344.352600 24.250887,344.143646 22.842796,344.764954 
	C21.110641,345.529266 18.784502,344.947449 15.996435,344.947449 
	C18.079926,343.546844 19.724087,344.227386 21.645809,344.019379 
z"/>
<path fill="#9F9F9E" opacity="1.000000" stroke="none" 
	d="
M58.972717,461.922913 
	C57.480007,461.770538 56.277813,462.571167 55.138500,461.214417 
	C57.750889,461.214417 60.143871,461.214417 62.749157,461.214417 
	C61.641052,462.545563 60.438469,461.691101 58.972717,461.922913 
z"/>
<path fill="#BEBDBD" opacity="1.000000" stroke="none" 
	d="
M67.819000,298.469849 
	C67.865753,300.011719 67.699501,301.251282 67.533249,302.490875 
	C67.136482,302.001007 66.719185,301.526215 66.346703,301.018524 
	C65.123421,299.351288 66.599861,298.859863 67.819000,298.469849 
z"/>
<path fill="#9F9F9E" opacity="1.000000" stroke="none" 
	d="
M586.660156,197.778809 
	C585.619934,196.227081 586.036316,194.381439 586.176514,191.909149 
	C587.471069,194.121002 586.934448,195.832779 586.660156,197.778809 
z"/>
<path fill="#3C3C3C" opacity="1.000000" stroke="none" 
	d="
M562.869385,208.907410 
	C561.550598,208.932144 560.617126,208.932144 559.683716,208.932144 
	C561.760681,207.590515 563.862366,208.293503 565.968933,208.693878 
	C565.064209,208.756821 564.159546,208.819748 562.869385,208.907410 
z"/>
<path fill="#BEBDBD" opacity="1.000000" stroke="none" 
	d="
M66.959251,311.577820 
	C66.637993,312.202576 66.848610,314.139130 66.247902,312.656799 
	C65.515305,310.848999 66.073639,308.518097 66.073639,305.678589 
	C67.471001,307.917175 66.728798,309.593964 66.959251,311.577820 
z"/>
<path fill="#6C6C6C" opacity="1.000000" stroke="none" 
	d="
M286.061096,225.366013 
	C286.120270,224.680054 286.159058,224.364197 286.235870,224.057861 
	C286.273773,223.906616 286.381714,223.772903 286.457977,223.631256 
	C287.495697,225.462280 286.664551,227.338348 286.995819,229.751938 
	C285.636444,228.164581 286.235199,226.892029 286.061096,225.366013 
z"/>
<path fill="#3C3C3C" opacity="1.000000" stroke="none" 
	d="
M573.160156,215.007812 
	C572.295654,217.147339 570.578430,215.560547 569.100647,215.706970 
	C570.172302,214.548508 571.561646,215.057800 573.160156,215.007812 
z"/>
<path fill="#C2D2D2" opacity="1.000000" stroke="none" 
	d="
M515.358704,240.644409 
	C513.471313,240.415543 513.471313,240.415543 512.257935,238.216202 
	C514.341492,237.368011 514.523254,239.417603 515.358704,240.644409 
z"/>
<path fill="#6C6C6C" opacity="1.000000" stroke="none" 
	d="
M119.978622,381.214661 
	C119.953857,382.558228 119.902618,383.515778 119.814819,385.156403 
	C118.463364,382.639008 119.145851,380.772034 119.403549,377.729126 
	C119.721046,379.522949 119.836594,380.175781 119.978622,381.214661 
z"/>
<path fill="#8A8A8A" opacity="1.000000" stroke="none" 
	d="
M115.589798,454.927002 
	C113.947952,454.719421 112.592598,455.484070 111.299431,454.438782 
	C113.265900,453.666534 115.156097,454.065979 117.036453,454.293640 
	C117.154732,454.307953 117.257004,454.454498 117.366730,454.539520 
	C116.905678,454.667633 116.444618,454.795746 115.589798,454.927002 
z"/>
<path fill="#BEBDBD" opacity="1.000000" stroke="none" 
	d="
M354.002594,468.767761 
	C353.729034,469.518738 353.953461,471.391205 353.169586,469.926788 
	C352.437073,468.558289 353.012970,466.489471 353.012970,464.405121 
	C354.674561,465.723083 353.657806,467.170166 354.002594,468.767761 
z"/>
<path fill="#8A8A8A" opacity="1.000000" stroke="none" 
	d="
M62.304741,371.011414 
	C61.521923,370.780701 60.308136,370.638306 60.837151,370.402649 
	C62.629124,369.604462 64.644684,369.784027 66.659370,370.422485 
	C65.361961,371.393555 63.986309,370.845764 62.304741,371.011414 
z"/>
<path fill="#6C6C6C" opacity="1.000000" stroke="none" 
	d="
M232.313354,161.760101 
	C233.450790,160.588257 235.005524,161.095642 236.997559,161.062073 
	C235.351883,162.662964 233.928589,161.729752 232.313354,161.760101 
z"/>
<path fill="#8A8A8A" opacity="1.000000" stroke="none" 
	d="
M112.974213,362.134918 
	C112.903656,363.483887 112.838554,364.445587 112.732819,366.007599 
	C111.764099,363.875122 111.933578,362.304657 112.238907,360.730530 
	C112.262566,360.608551 112.427147,360.513855 112.526230,360.406494 
	C112.677376,360.853546 112.828522,361.300598 112.974213,362.134918 
z"/>
<path fill="#BEBDBD" opacity="1.000000" stroke="none" 
	d="
M336.772522,470.482544 
	C335.601471,468.491577 336.166321,466.454010 336.741486,464.399384 
	C336.831970,465.964630 336.922455,467.529907 337.045898,469.510742 
	C337.062134,470.098267 337.045349,470.270264 336.772522,470.482544 
z"/>
<path fill="#6C6C6C" opacity="1.000000" stroke="none" 
	d="
M255.776733,162.721130 
	C255.392502,162.683716 255.381439,162.499481 255.389435,162.408768 
	C257.027832,162.213394 258.658234,162.108749 260.288635,162.004105 
	C260.314362,162.255585 260.340088,162.507050 260.365814,162.758530 
	C258.964203,162.758530 257.562561,162.758530 255.776733,162.721130 
z"/>
<path fill="#BEBDBD" opacity="1.000000" stroke="none" 
	d="
M354.029968,427.326965 
	C354.005341,426.181976 354.005341,425.382141 354.005341,424.340149 
	C355.605255,425.489868 354.829071,426.762207 354.910706,427.878693 
	C354.922546,428.040222 354.925293,428.293884 354.831787,428.357666 
	C353.722137,429.114807 354.337585,427.881500 354.029968,427.326965 
z"/>
<path fill="#9F9F9E" opacity="1.000000" stroke="none" 
	d="
M552.490234,336.963440 
	C553.451233,335.236053 555.083984,336.371521 557.197266,336.091003 
	C555.468567,337.445984 554.104370,336.633759 552.490234,336.963440 
z"/>
<path fill="#9DAEAE" opacity="1.000000" stroke="none" 
	d="
M139.281723,250.448120 
	C140.027435,251.526321 140.313690,252.623657 139.361771,254.526169 
	C139.338989,252.679810 137.100510,252.065384 139.281723,250.448120 
z"/>
<path fill="#6C6C6C" opacity="1.000000" stroke="none" 
	d="
M382.335510,282.276489 
	C383.334595,283.377960 383.263763,284.725800 382.661224,286.234161 
	C381.386444,285.059601 382.049011,283.734070 382.335510,282.276489 
z"/>
<path fill="#6C6C6C" opacity="1.000000" stroke="none" 
	d="
M285.333160,186.797073 
	C286.038208,187.856644 286.330475,189.213440 285.583527,190.657745 
	C284.404266,189.537430 285.297577,188.250427 285.333160,186.797073 
z"/>
<path fill="#C2D2D2" opacity="1.000000" stroke="none" 
	d="
M306.629944,480.027832 
	C306.004761,481.739166 304.706940,480.962677 302.107330,480.225708 
	C304.366669,480.112701 305.308380,480.065582 306.629944,480.027832 
z"/>
<path fill="#C2D2D2" opacity="1.000000" stroke="none" 
	d="
M346.742493,461.266663 
	C348.176453,461.065857 349.293579,461.065857 350.410675,461.065857 
	C349.112305,462.065857 347.788300,462.203796 346.742493,461.266663 
z"/>
<path fill="#8A8A8A" opacity="1.000000" stroke="none" 
	d="
M8.931071,334.765381 
	C8.791653,335.576691 8.664690,336.019989 8.537727,336.463257 
	C7.749323,335.337097 7.951479,334.053986 8.155861,332.862366 
	C8.284434,332.112762 8.827030,332.621094 8.925388,332.983429 
	C9.044963,333.423920 8.947244,333.923370 8.931071,334.765381 
z"/>
<path fill="#BEBDBD" opacity="1.000000" stroke="none" 
	d="
M339.721344,425.861206 
	C339.925018,427.294525 340.390961,428.464020 339.511932,429.609039 
	C338.644012,428.189240 338.776459,426.872284 339.721344,425.861206 
z"/>
<path fill="#BEBDBD" opacity="1.000000" stroke="none" 
	d="
M164.425262,426.053406 
	C165.739639,426.097168 166.754318,425.643738 167.661728,426.523438 
	C166.295181,427.367706 164.958801,427.077667 163.620071,426.610718 
	C163.598862,426.603333 163.598969,426.399414 163.650238,426.347504 
	C163.762238,426.234070 163.913574,426.159515 164.425262,426.053406 
z"/>
<path fill="#3C3C3C" opacity="1.000000" stroke="none" 
	d="
M53.289539,440.822296 
	C53.080414,439.695404 52.700703,438.735443 53.586739,437.934235 
	C54.093678,439.023956 54.298725,440.053223 53.289539,440.822296 
z"/>
<path fill="#8A8A8A" opacity="1.000000" stroke="none" 
	d="
M471.253845,240.309540 
	C470.237732,241.147797 468.882507,241.076431 467.443817,240.088104 
	C468.612091,240.088104 469.780365,240.088104 471.253845,240.309540 
z"/>
<path fill="#6C6C6C" opacity="1.000000" stroke="none" 
	d="
M486.844788,463.014160 
	C484.008301,461.261353 486.693420,462.194336 487.067139,462.039642 
	C487.316101,461.936554 487.696136,462.105316 488.003601,462.198364 
	C488.517578,462.353912 488.559082,462.562103 488.125641,462.721039 
	C487.826263,462.830780 487.509216,462.892395 486.844788,463.014160 
z"/>
<path fill="#4C3013" opacity="1.000000" stroke="none" 
	d="
M82.793228,176.608917 
	C82.937622,176.441132 83.187675,176.420349 83.437714,176.399567 
	C83.258110,176.518341 83.078499,176.637115 82.793228,176.608917 
z"/>
<path fill="#4C3013" opacity="1.000000" stroke="none" 
	d="
M85.022125,175.505035 
	C85.388641,175.234879 85.897423,175.201645 86.782677,175.242035 
	C86.592323,175.916748 85.942902,176.131317 85.022125,175.505035 
z"/>
<path fill="#71471B" opacity="1.000000" stroke="none" 
	d="
M376.977600,422.016052 
	C377.099945,422.144623 377.238861,422.258881 377.377777,422.373138 
	C377.296326,422.327148 377.214905,422.281158 377.076904,422.101013 
	C377.020355,421.966888 376.994141,422.001740 376.977600,422.016052 
z"/>
<path fill="#8A8A8A" opacity="1.000000" stroke="none" 
	d="
M306.701111,474.662231 
	C306.342010,474.703735 306.208923,474.458282 306.324097,473.926147 
	C306.669434,473.904449 306.787720,474.149750 306.701111,474.662231 
z"/>
<path fill="#BEBDBD" opacity="1.000000" stroke="none" 
	d="
M336.933868,470.071259 
	C337.297424,470.190979 337.515991,470.455688 337.734528,470.720398 
	C337.474091,470.767334 337.213623,470.814240 336.734802,470.691986 
	C336.516449,470.522827 336.788849,470.216248 336.933868,470.071259 
z"/>
<path fill="#F7C696" opacity="1.000000" stroke="none" 
	d="
M159.063568,370.717041 
	C158.870804,370.782898 158.576157,370.588074 158.143097,370.164551 
	C158.323669,370.109314 158.642670,370.282806 159.063568,370.717041 
z"/>
<path fill="#C2D2D2" opacity="1.000000" stroke="none" 
	d="
M206.856995,369.968781 
	C206.871887,369.931732 206.847595,370.118103 206.847595,370.118103 
	C206.847595,370.118103 206.961533,369.950806 206.870453,370.003021 
	C206.779358,370.055237 206.842102,370.005829 206.856995,369.968781 
z"/>
<path fill="#503312" opacity="1.000000" stroke="none" 
	d="
M446.544098,414.497620 
	C446.570862,414.551117 446.517334,414.444153 446.544098,414.497620 
z"/>
<path fill="#69481F" opacity="1.000000" stroke="none" 
	d="
M232.063614,330.072723 
	C231.894012,330.395874 231.614487,331.056335 231.717102,329.977722 
	C231.883560,329.896362 232.005478,330.012054 232.063614,330.072723 
z"/>
<path fill="#523412" opacity="1.000000" stroke="none" 
	d="
M304.002319,362.003021 
	C304.088440,361.967773 304.172272,361.929504 304.125183,361.943420 
	C303.994263,361.995605 304.000000,362.000000 304.002319,362.003021 
z"/>
<path fill="#FDFCC6" opacity="1.000000" stroke="none" 
	d="
M48.887554,393.780212 
	C56.419266,388.314972 64.431435,388.575409 72.550865,390.552429 
	C77.212212,391.687439 81.714371,393.463898 86.356071,394.695862 
	C89.985336,395.659119 91.603439,398.721191 93.340889,401.350555 
	C95.232018,404.212524 92.314903,404.045837 90.638939,404.158539 
	C83.427185,404.643372 76.481201,402.620300 69.409866,401.776733 
	C56.181797,400.198700 48.866650,406.187012 45.347755,414.899780 
	C44.619045,416.704132 43.652206,418.412292 42.469593,420.830414 
	C40.000038,410.296906 39.915474,401.131714 48.887554,393.780212 
z"/>
<path fill="#141616" opacity="1.000000" stroke="none" 
	d="
M262.224609,370.253540 
	C262.079681,369.617920 262.158173,369.240265 262.332672,368.582886 
	C265.310669,367.949432 267.621643,366.471344 270.241821,364.593597 
	C267.391571,361.580231 263.830017,363.947113 260.346985,362.736908 
	C263.167664,359.998322 266.815186,359.153229 268.712128,355.885071 
	C265.841858,353.665741 262.937744,357.039185 259.944183,355.597321 
	C262.908081,353.454407 266.195129,353.596680 269.387238,353.592407 
	C270.448578,353.590973 271.886536,353.728058 272.243622,355.125427 
	C272.658478,356.748810 271.497223,357.526917 270.205017,358.013031 
	C268.877380,358.512482 268.105042,359.567108 267.265686,360.591339 
	C274.352997,364.222107 274.352997,364.222107 268.150146,368.451385 
	C276.169006,373.170349 276.169006,373.170349 270.501190,377.439514 
	C269.974854,377.400940 269.791748,377.257080 269.481934,376.788269 
	C269.668060,374.109436 269.292114,372.316406 266.335754,372.190033 
	C264.888031,372.128174 263.458435,371.729462 262.224609,370.253540 
z"/>
<path fill="#171919" opacity="1.000000" stroke="none" 
	d="
M234.802582,348.221741 
	C235.023560,347.370239 235.161072,346.834625 235.503799,346.529724 
	C236.896133,345.291290 237.707016,342.932434 240.148254,343.550934 
	C242.587601,344.168915 241.257217,346.718170 242.394669,348.464325 
	C243.980850,347.998474 245.592728,345.686096 247.375565,347.207397 
	C248.852539,348.467712 249.312546,350.509796 249.231827,353.377106 
	C246.786255,350.886505 244.861343,349.790436 242.005478,352.185089 
	C239.739075,354.085480 238.975601,351.808228 239.024765,349.743622 
	C239.082642,347.313690 238.635376,346.023376 235.933197,348.431366 
	C235.375778,348.666656 235.094620,348.655182 234.802582,348.221741 
z"/>
<path fill="#171919" opacity="1.000000" stroke="none" 
	d="
M269.541992,375.620636 
	C269.970215,376.110199 270.006470,376.397308 270.100342,377.114624 
	C268.859436,379.209961 264.781219,378.300415 265.837952,382.560150 
	C265.048676,382.692627 264.290131,382.440552 263.245422,382.098053 
	C261.837494,377.441498 262.866089,376.346649 269.541992,375.620636 
z"/>
<path fill="#171919" opacity="1.000000" stroke="none" 
	d="
M235.444153,348.455078 
	C235.008530,349.494354 235.642487,351.260986 233.870926,351.206909 
	C233.282791,351.188995 232.437378,351.142120 232.375534,350.242188 
	C232.289825,348.995087 233.627899,348.846008 234.479340,347.934631 
	C234.938263,347.943848 235.084808,348.087952 235.444153,348.455078 
z"/>
<path fill="#9DAEAE" opacity="1.000000" stroke="none" 
	d="
M273.057861,382.690186 
	C272.516022,382.718842 272.136047,382.600555 271.756104,382.482239 
	C271.862549,382.382874 271.989899,382.183899 272.071899,382.201141 
	C272.461273,382.282867 272.838318,382.423553 273.057861,382.690186 
z"/>
<path fill="#4C3013" opacity="1.000000" stroke="none" 
	d="
M216.352554,421.924438 
	C215.899094,421.066437 214.526001,420.272888 215.596130,419.381348 
	C216.702545,418.459564 217.248367,419.755646 218.026398,420.666809 
	C217.635559,421.294891 217.142914,421.606689 216.352554,421.924438 
z"/>
<path fill="#171919" opacity="1.000000" stroke="none" 
	d="
M229.582474,401.310242 
	C230.612106,402.570496 231.408585,403.535583 232.583817,404.959595 
	C229.824738,404.860504 228.464706,403.529480 227.350220,401.932617 
	C226.916550,401.311218 226.605408,400.265594 227.825470,400.065033 
	C228.269348,399.992035 228.837738,400.676331 229.582474,401.310242 
z"/>
<path fill="#C2D2D2" opacity="1.000000" stroke="none" 
	d="
M270.076813,375.509155 
	C268.347137,376.528778 266.816559,377.592621 265.159698,377.852905 
	C262.889435,378.209564 262.746155,379.481995 262.943817,381.609314 
	C259.186981,379.894379 258.638184,374.973846 261.843933,370.296570 
	C264.551605,370.429047 267.147491,370.688965 269.640259,371.342407 
	C272.419769,372.070953 272.482330,373.538788 270.076813,375.509155 
z"/>
<path fill="#171919" opacity="1.000000" stroke="none" 
	d="
M168.023834,385.262695 
	C170.376678,384.116302 171.210785,386.248962 172.342163,387.643860 
	C170.315948,387.898010 169.355316,386.445007 168.023834,385.262695 
z"/>
<path fill="#171919" opacity="1.000000" stroke="none" 
	d="
M171.975983,388.222168 
	C174.015869,387.354889 173.899673,388.760590 173.917328,390.370178 
	C173.216721,390.007690 172.569519,389.265686 171.975983,388.222168 
z"/>
<path fill="#171919" opacity="1.000000" stroke="none" 
	d="
M166.920654,384.309631 
	C167.376556,384.076935 167.837280,384.173157 168.186646,384.619446 
	C167.692017,384.859222 167.308762,384.748901 166.920654,384.309631 
z"/>
</svg>